<svg xmlns="http://www.w3.org/2000/svg" viewBox="0 0 1024 1024">
  <rect width="1024" height="1024" rx="176" fill="#176b55"/>
  <circle cx="512" cy="512" r="328" fill="#f6faf8"/>
  <path
    d="M236 542c52-86 108-130 168-130 94 0 112 154 188 154 44 0 84-34 122-100 20-35 72-22 72 18 0 9-2 17-7 25-52 86-108 130-168 130-94 0-112-154-188-154-44 0-84 34-122 100-20 35-72 22-72-18 0-9 2-17 7-25z"
    fill="#176b55"
  />
  <path
    d="M286 704h428c25 0 45 20 45 45s-20 45-45 45H286c-25 0-45-20-45-45s20-45 45-45z"
    fill="#274541"
  />
</svg>
