<svg xmlns="http://www.w3.org/2000/svg" viewBox="0 0 1024 1024">
  <rect
    x="58"
    y="58"
    width="908"
    height="908"
    rx="170"
    fill="#f4bf45"
    stroke="#14211f"
    stroke-width="72"
  />
  <path
    d="M214 250h596v512H214z"
    fill="#fff8ec"
    stroke="#14211f"
    stroke-width="56"
    stroke-linejoin="round"
  />
  <path
    d="M308 765h502v92H308z"
    fill="#ef6b57"
    stroke="#14211f"
    stroke-width="48"
    stroke-linejoin="round"
  />
  <path
    d="M292 310h420c74 0 134 60 134 134s-60 134-134 134H292z"
    fill="#0f7664"
    stroke="#14211f"
    stroke-width="54"
    stroke-linejoin="round"
  />
  <path
    d="M270 520c54-148 108-148 162 0s108 148 162 0"
    fill="none"
    stroke="#ef6b57"
    stroke-width="64"
    stroke-linecap="round"
    stroke-linejoin="round"
  />
  <path
    d="M494 520c78-186 156-186 234 0 36 86 72 104 108 54"
    fill="none"
    stroke="#a7e7c3"
    stroke-width="64"
    stroke-linecap="round"
    stroke-linejoin="round"
  />
  <path
    d="m784 154 38 100 100 38-100 38-38 100-38-100-100-38 100-38z"
    fill="#81c7e8"
    stroke="#14211f"
    stroke-width="44"
    stroke-linejoin="round"
  />
</svg>
